<svg xmlns="http://www.w3.org/2000/svg" xmlns:xlink="http://www.w3.org/1999/xlink" width="125.39" height="123.022" viewBox="0 0 125.39 123.022"><defs><style>.a{fill:url(#a);}.b{fill:url(#b);}.c{fill:url(#c);}.d{fill:url(#d);}.e{fill:url(#e);}.f{fill:url(#f);}.g{fill:url(#g);}.h{fill:url(#h);}.i{fill:url(#i);}.j{fill:url(#j);}.k{fill:url(#k);}.l{fill:url(#l);}.m{fill:url(#m);}</style><linearGradient id="a" x1="-0.002" y1="0.199" x2="0.994" y2="0.199" gradientUnits="objectBoundingBox"><stop offset="0" stop-color="#61db99"/><stop offset="1" stop-color="#009e74"/></linearGradient><linearGradient id="b" x1="0.541" y1="-0.102" x2="0.488" y2="0.273" gradientUnits="objectBoundingBox"><stop offset="0" stop-color="#009e74" stop-opacity="0"/><stop offset="1" stop-color="#009e74"/></linearGradient><linearGradient id="c" x1="-0.002" y1="0.42" x2="0.994" y2="0.42" xlink:href="#a"/><linearGradient id="d" x1="0.535" y1="0.075" x2="0.5" y2="0.4" xlink:href="#b"/><linearGradient id="e" x1="-0.002" y1="0.641" x2="0.994" y2="0.641" xlink:href="#a"/><linearGradient id="f" x1="0.571" y1="0.078" x2="0.411" y2="1.329" xlink:href="#b"/><linearGradient id="g" x1="-0.002" y1="0.85" x2="0.994" y2="0.85" gradientUnits="objectBoundingBox"><stop offset="0" stop-color="#a7f3ce"/><stop offset="1" stop-color="#61db99"/></linearGradient><linearGradient id="h" x1="0.219" y1="1.521" x2="0.894" y2="0.042" xlink:href="#a"/><linearGradient id="i" x1="0.189" y1="1.479" x2="0.911" y2="0.757" xlink:href="#g"/><linearGradient id="j" x1="0.217" y1="9.329" x2="0.874" y2="7.044" xlink:href="#g"/><linearGradient id="k" x1="0.206" y1="-0.272" x2="0.863" y2="-2.557" xlink:href="#g"/><linearGradient id="l" x1="-0.001" y1="2.007" x2="0.996" y2="2.007" gradientUnits="objectBoundingBox"><stop offset="0" stop-color="#ffb92d"/><stop offset="1" stop-color="#f59500"/></linearGradient><radialGradient id="m" cx="0.523" cy="-0.238" r="1.262" gradientTransform="matrix(-0.406, 0, 0, 1, 6.509, 0)" gradientUnits="objectBoundingBox"><stop offset="0" stop-color="#be3f45"/><stop offset="0.317" stop-color="#c14046"/><stop offset="0.538" stop-color="#ca4148"/><stop offset="0.729" stop-color="#d9444b"/><stop offset="0.902" stop-color="#ef4950"/><stop offset="1" stop-color="#ff4c54"/></radialGradient></defs><g transform="translate(0 -4.836)"><path class="a" d="M203.391,242.484H137.758a2.661,2.661,0,0,1-2.661-2.661V209.166a2.661,2.661,0,0,1,2.661-2.661h65.633a2.661,2.661,0,0,1,2.661,2.661v30.658A2.66,2.66,0,0,1,203.391,242.484Z" transform="translate(-102.011 -152.28)"/><path class="b" d="M135.169,238.717l3.767,3.767h64.455a2.661,2.661,0,0,0,2.661-2.661V209.165a2.661,2.661,0,0,0-2.661-2.661H137.758a2.661,2.661,0,0,0-2.661,2.661v29.4Z" transform="translate(-102.011 -152.279)"/><path class="c" d="M187.1,226.188H121.464a2.661,2.661,0,0,1-2.661-2.661V192.87a2.661,2.661,0,0,1,2.661-2.661H187.1a2.661,2.661,0,0,1,2.661,2.661v30.658A2.661,2.661,0,0,1,187.1,226.188Z" transform="translate(-89.708 -139.975)"/><path class="d" d="M118.875,222.421l3.767,3.767H187.1a2.661,2.661,0,0,0,2.661-2.661V192.869a2.661,2.661,0,0,0-2.661-2.661H121.464a2.661,2.661,0,0,0-2.661,2.661v29.4Z" transform="translate(-89.708 -139.974)"/><path class="e" d="M170.8,209.893H105.168a2.661,2.661,0,0,1-2.661-2.661V176.575a2.661,2.661,0,0,1,2.661-2.661H170.8a2.661,2.661,0,0,1,2.661,2.661v30.658A2.661,2.661,0,0,1,170.8,209.893Z" transform="translate(-77.403 -127.67)"/><path class="f" d="M102.579,206.126l3.767,3.767H170.8a2.661,2.661,0,0,0,2.661-2.661V176.575a2.661,2.661,0,0,0-2.661-2.661H105.168a2.661,2.661,0,0,0-2.661,2.661v29.4Z" transform="translate(-77.403 -127.67)"/><path class="g" d="M155.471,194.563H89.838a2.661,2.661,0,0,1-2.661-2.661V161.245a2.661,2.661,0,0,1,2.661-2.661h65.633a2.661,2.661,0,0,1,2.661,2.661V191.9A2.661,2.661,0,0,1,155.471,194.563Z" transform="translate(-65.827 -116.095)"/><path class="h" d="M160.828,174.764a3.806,3.806,0,0,1-3.463-4.826H101.353a3.806,3.806,0,0,1-5.3,4.464h0v21.489h0a3.806,3.806,0,0,1,5.3,4.464h56.012a3.806,3.806,0,0,1,5.3-4.464h0V174.4h0A3.794,3.794,0,0,1,160.828,174.764Z" transform="translate(-72.532 -124.668)"/><circle class="i" cx="9.213" cy="9.213" r="9.213" transform="translate(47.613 51.265)"/><rect class="j" width="14.149" height="4.071" transform="translate(30.015 48.654)"/><rect class="k" width="14.149" height="4.071" transform="translate(69.489 68.232)"/><path class="l" d="M133.654,32.071a5.5,5.5,0,0,0-6.632,2.382A61.54,61.54,0,0,0,16.009,46.962a5.5,5.5,0,1,0,10.445,3.465A50.548,50.548,0,0,1,116.926,39.06a5.5,5.5,0,0,0-2.7,10.61l11.457,4.192c.027.01.055.017.083.026.1.034.193.064.291.092.052.015.1.03.157.044.1.025.2.047.3.066.051.01.1.022.153.03.107.018.214.03.322.042.044,0,.088.012.132.015.15.012.3.02.453.02h0q.214,0,.426-.017c.034,0,.067-.008.1-.012.109-.011.217-.022.325-.039.042-.007.083-.016.125-.024.1-.018.2-.037.3-.06.046-.011.092-.025.138-.038.094-.025.186-.05.278-.08l.041-.012c.027-.009.053-.022.08-.031.121-.043.241-.089.359-.139.051-.022.1-.043.151-.066.115-.054.228-.112.339-.173.035-.019.072-.037.107-.057.134-.078.264-.163.391-.252.05-.035.1-.072.145-.108.085-.064.168-.129.249-.2.045-.038.089-.075.132-.115.093-.083.182-.171.269-.261.024-.025.05-.049.073-.074q.17-.183.324-.382l.021-.028c.091-.12.178-.245.26-.373.022-.035.043-.07.064-.1q.1-.156.18-.32c.023-.045.047-.09.069-.136.05-.1.1-.207.139-.314.02-.049.042-.1.061-.148.006-.017.014-.034.021-.051L136.93,39.13A5.5,5.5,0,0,0,133.654,32.071Z" transform="translate(-11.876 0)"/><path class="m" d="M3.613,327.73a5.5,5.5,0,0,0,6.632-2.382,61.541,61.541,0,0,0,111.013-12.509,5.5,5.5,0,0,0-10.445-3.465,50.548,50.548,0,0,1-90.472,11.368,5.5,5.5,0,0,0,2.7-10.61l-11.457-4.192c-.027-.01-.055-.017-.083-.026-.1-.033-.193-.064-.291-.092l-.157-.044c-.1-.025-.2-.046-.3-.066-.051-.01-.1-.022-.153-.03-.107-.018-.214-.03-.322-.042-.044,0-.088-.012-.132-.015-.15-.012-.3-.02-.453-.02h0c-.143,0-.285.006-.426.017-.034,0-.067.008-.1.011-.109.011-.217.022-.325.039-.042.007-.083.016-.125.024-.1.018-.2.037-.3.06-.046.011-.092.025-.138.038-.093.025-.186.05-.278.08l-.041.012c-.027.009-.053.022-.08.031-.121.043-.241.089-.359.139-.051.022-.1.043-.151.066-.115.054-.228.112-.339.173-.035.019-.072.037-.107.057-.134.078-.264.163-.391.252-.05.035-.1.072-.145.108-.085.064-.168.129-.249.2-.045.038-.089.076-.132.115-.093.083-.182.171-.269.261-.024.025-.05.049-.073.074q-.17.183-.324.382l-.021.028c-.091.12-.178.245-.26.373-.022.035-.043.07-.064.1q-.1.157-.18.32c-.023.045-.047.09-.069.136-.05.1-.1.207-.139.314-.02.049-.042.1-.061.148-.006.017-.014.034-.021.051L.337,320.672A5.5,5.5,0,0,0,3.613,327.73Z" transform="translate(0 -227.108)"/></g></svg>