<svg xmlns="http://www.w3.org/2000/svg" width="140" height="145" viewBox="0 0 140 145"><defs><style>.a{fill:rgba(15,73,207,0.87);}.b,.d,.e,.h{fill:none;}.b{stroke:#707070;}.c{fill:#edb740;}.d,.f{stroke:#76b82b;}.e{stroke:rgba(0,0,0,0);}.f{fill:#76b82b;}.g{stroke:none;}</style></defs><g transform="translate(-1343 -796.99)"><g transform="translate(1343 797)"><path class="a" d="M16.022,17.875,7.75,15.455a2.259,2.259,0,0,1,.636-4.427h5.078a4.675,4.675,0,0,1,2.619.8,1.194,1.194,0,0,0,1.493-.153l2.665-2.6A1.241,1.241,0,0,0,20.1,7.2a10.829,10.829,0,0,0-6.625-2.3V1.225A1.229,1.229,0,0,0,12.254,0H9.8A1.229,1.229,0,0,0,8.577,1.225V4.9H8.386a8.391,8.391,0,0,0-8.348,9.16,8.767,8.767,0,0,0,6.418,7.4l7.85,2.3a2.259,2.259,0,0,1-.636,4.427H8.593a4.675,4.675,0,0,1-2.619-.8,1.194,1.194,0,0,0-1.493.153l-2.665,2.6a1.241,1.241,0,0,0,.138,1.876,10.829,10.829,0,0,0,6.625,2.3v3.676A1.229,1.229,0,0,0,9.8,39.212h2.451a1.229,1.229,0,0,0,1.225-1.225V34.3a8.651,8.651,0,0,0,8.1-5.568,8.41,8.41,0,0,0-5.552-10.852Z" transform="translate(16.506 7.686)"/><g class="b" transform="translate(0 -0.01)"><circle class="g" cx="27.5" cy="27.5" r="27.5"/><circle class="h" cx="27.5" cy="27.5" r="27"/></g></g><g transform="translate(1427.24 886.91)"><path class="c" d="M22.738,2.25h-4.2a.789.789,0,0,0-.7.586L14.27,12.742c-.934,3.036-1.745,6.292-1.745,6.292h-.084s-.811-3.255-1.745-6.292L7.129,2.836a.789.789,0,0,0-.7-.586h-4.2c-.586,0-.953.849-.683,1.54L6.71,16.951H2.956c-.425,0-.773.473-.773,1.05v2.8c0,.578.348,1.05.773,1.05H8.636l1.275,3.255v2.345H2.956c-.425,0-.773.473-.773,1.05v2.8c0,.578.348,1.05.773,1.05H9.911V40.4c0,.578.348,1.05.773,1.05H14.29c.425,0,.773-.473.773-1.05V32.352h6.954c.425,0,.773-.473.773-1.05V28.5c0-.578-.348-1.05-.773-1.05H15.062V25.107l1.275-3.255h5.679c.425,0,.773-.473.773-1.05V18c0-.578-.348-1.05-.773-1.05H18.263L23.42,3.79c.277-.691-.1-1.54-.683-1.54Z" transform="translate(14.415 6.899)"/><g class="b" transform="translate(-0.24 0.08)"><ellipse class="g" cx="28" cy="27.5" rx="28" ry="27.5"/><ellipse class="h" cx="28" cy="27.5" rx="27.5" ry="27"/></g></g><g transform="translate(1398.512 815.006)"><path class="d" d="M1410.9,893h0V826h-53.4" transform="translate(-1357.5 -821.042)"/><path class="e" transform="translate(53.403 71.961)"/><path class="f" d="M-5.7,1.917h0L-15-3.042-5.7-8Z" transform="translate(15 8)"/></g><g transform="translate(1371.519 852.901)"><path class="d" d="M1357.5,826h0v65.664h53.694" transform="translate(-1357.5 -826)"/><path class="e" transform="translate(0 0)"/><path class="f" d="M-15-8h0l9.3,4.958L-15,1.917Z" transform="translate(59.397 68.706)"/></g></g></svg>