<svg xmlns="http://www.w3.org/2000/svg" width="115.021" height="151.001" viewBox="0 0 115.021 151.001"><defs><style>.a{fill:#61729b;}.b{fill:#47568c;}.c{fill:#fde4e4;}.d{fill:#fcced3;}.e{fill:#25d9f8;}.f{fill:#2c3b73;}.g{fill:#00c0f1;}.h{fill:#faaaaa;}.i{fill:#009ae4;}.j{fill:#edb740;}</style></defs><g transform="translate(-871 -1795.415)"><g transform="translate(871 1795.415)"><path class="a" d="M176.021,361.967v22.414h-17.7l-4.424-8.848-4.424,8.848h-17.7l-4.424-8.848h-17.7l-4.424,8.848h-17.7l-4.424-8.848L78.7,384.381H61V361.967a25.97,25.97,0,0,1,20.881-25.481L109.663,331h17.7l27.782,5.486A25.97,25.97,0,0,1,176.021,361.967Z" transform="translate(-61 -233.38)"/><path class="b" d="M313.51,361.967v22.414h-17.7l-4.424-8.848-4.424,8.848h-17.7l-4.424-8.848H256V331h8.848l27.782,5.486A25.97,25.97,0,0,1,313.51,361.967Z" transform="translate(-198.49 -233.38)"/><path class="c" d="M212.934,69.848v30.967a31,31,0,0,1-22.119,29.551V140.63l-8.848,8.848-8.848-8.848V130.366A31,31,0,0,1,151,100.815V78.7l29.109-8.848L188.956,61Z" transform="translate(-124.457 -43.01)"/><path class="d" d="M286.967,69.848v30.967a31,31,0,0,1-22.119,29.551V140.63L256,149.477V67.989L262.989,61Z" transform="translate(-198.49 -43.01)"/><path class="a" d="M212.934,22.414v4.424H188.956l-8.848,8.848H151V22.414A22.381,22.381,0,0,1,173.119,0h17.7A22.381,22.381,0,0,1,212.934,22.414Z" transform="translate(-124.457)"/><path class="e" d="M237.543,405.534H211l4.424-35.686L224.272,361l8.848,8.848Z" transform="translate(-166.761 -254.532)"/><rect class="b" width="9" height="27" transform="translate(18 124.001)"/><rect class="f" width="9" height="27" transform="translate(88 124.001)"/><path class="g" d="M264.848,369.848l4.424,35.686H256V361Z" transform="translate(-198.49 -254.532)"/><path class="b" d="M286.967,22.414v4.424H262.989L256,33.828V0h8.848A22.381,22.381,0,0,1,286.967,22.414Z" transform="translate(-198.49)"/><path class="d" d="M237.543,196A13.272,13.272,0,1,1,211,196h8.848a4.424,4.424,0,0,0,8.848,0Z" transform="translate(-166.761 -138.195)"/><path class="h" d="M269.272,196A13.254,13.254,0,0,1,256,209.272v-8.848A4.381,4.381,0,0,0,260.424,196Z" transform="translate(-198.49 -138.195)"/><rect class="g" width="17" height="18" transform="translate(49 97.001)"/><rect class="i" width="8" height="18" transform="translate(58 97.001)"/></g><path class="j" d="M83.423,15.866V11.244a11.244,11.244,0,1,0-22.488,0v4.578a2.064,2.064,0,0,0-1.391,2.06v6.295a12.635,12.635,0,1,0,25.27,0V17.883A2.06,2.06,0,0,0,83.423,15.866ZM74.58,29.392a.31.31,0,0,1-.316.381H70.141a.31.31,0,0,1-.316-.381l.66-3.5a2.514,2.514,0,1,1,3.427-.038Zm4.965-13.75H64.812v-4.4a7.367,7.367,0,1,1,14.734,0Z" transform="translate(889.443 1797.979)"/></g></svg>