<svg xmlns="http://www.w3.org/2000/svg" xmlns:xlink="http://www.w3.org/1999/xlink" width="261" height="147" viewBox="0 0 261 147"><defs><style>.a{fill:#f5f5f5;}.b{clip-path:url(#a);}.c{fill:#dadda4;}.d{fill:#d3d3d3;}.e{fill:#e9eccf;}.f{fill:#76b82b;}.g{fill:#b5d676;}.h{fill:#fbf7ed;}.i{fill:#4c7464;}.j{fill:#e0cb07;}.k{fill:#fcee21;}.l{fill:#e6e6e6;}.m{fill:#d89868;}.n{fill:#dfb28b;}</style><clipPath id="a"><rect class="a" width="261" height="147" transform="translate(1209 311)"/></clipPath></defs><g class="b" transform="translate(-1209 -311)"><g transform="translate(1263.671 311)"><rect class="c" width="106.453" height="10.138" transform="translate(38.019 124.189)"/><g transform="translate(32.95 48.151)"><rect class="d" width="116.591" height="10.138" transform="translate(0 86.176)"/><rect class="d" width="50.692" height="10.138" transform="translate(65.899)"/></g><rect class="e" width="43.088" height="65.899" transform="translate(98.849 58.289)"/><rect class="f" width="91.245" height="53.226" transform="translate(2.535 58.289)"/><path class="g" d="M87.693,124.07V98.724a5.069,5.069,0,0,1-5.069-5.069H21.794a5.069,5.069,0,0,1-5.069,5.069V124.07a5.069,5.069,0,0,1,5.069,5.069h60.83A5.069,5.069,0,0,1,87.693,124.07Z" transform="translate(-4.052 -25.227)"/><g transform="translate(10.138 65.893)"><path class="h" d="M108.867,105.518v-7.6a2.534,2.534,0,0,0-2.535-2.535,2.537,2.537,0,0,1-2.535-2.535,2.534,2.534,0,0,0-2.535-2.535h-7.6v5.069h5.5a7.641,7.641,0,0,0,4.635,4.636v5.5Z" transform="translate(-32.829 -90.31)"/><path class="h" d="M108.867,131.364v-7.6H103.8v5.5a7.641,7.641,0,0,0-4.635,4.636h-5.5v5.069h7.6a2.534,2.534,0,0,0,2.535-2.535,2.537,2.537,0,0,1,2.535-2.535A2.534,2.534,0,0,0,108.867,131.364Z" transform="translate(-32.829 -98.414)"/><rect class="h" width="5.069" height="5.069" transform="translate(63.365 17.742)"/><path class="h" d="M13.38,105.518v-7.6a2.534,2.534,0,0,1,2.535-2.535,2.537,2.537,0,0,0,2.535-2.535,2.534,2.534,0,0,1,2.535-2.535h7.6v5.069h-5.5a7.641,7.641,0,0,1-4.635,4.636v5.5Z" transform="translate(-13.38 -90.31)"/><path class="h" d="M13.38,131.364v-7.6h5.069v5.5a7.641,7.641,0,0,1,4.635,4.636h5.5v5.069h-7.6a2.534,2.534,0,0,1-2.535-2.535,2.537,2.537,0,0,0-2.535-2.535A2.534,2.534,0,0,1,13.38,131.364Z" transform="translate(-13.38 -98.414)"/><rect class="h" width="5.069" height="5.069" transform="translate(7.604 17.742)"/><circle class="h" cx="17.742" cy="17.742" r="17.742" transform="translate(20.277 2.535)"/></g><path class="i" d="M58.589,117.277H53.52v5.069a2.534,2.534,0,0,0,2.535,2.535h2.535v2.535h5.069v-2.535h2.535a2.534,2.534,0,0,0,2.535-2.535V112.208a2.534,2.534,0,0,0-2.535-2.535h-7.6V104.6h5.069v2.535h5.069v-5.069a2.534,2.534,0,0,0-2.535-2.535H63.658V97H58.589v2.535H56.054a2.534,2.534,0,0,0-2.535,2.535v10.138a2.534,2.534,0,0,0,2.535,2.535h7.6v5.069H58.589Z" transform="translate(-12.966 -26.038)"/><g transform="translate(96.314 73.497)"><path class="j" d="M143.834,100.345l5.069,5.069h-5.069Z" transform="translate(-131.161 -100.345)"/><path class="j" d="M132.178,113.725v10.138h12.673V134l-5.069,5.069V128.932H127.109V113.725Z" transform="translate(-127.109 -103.587)"/></g><path class="k" d="M141.4,103.793h5.069V93.655L164.214,111.4l-5.069,5.069-12.673,12.673V119H133.8V103.793Z" transform="translate(-32.415 -25.227)"/><rect class="c" width="45.623" height="5.069" transform="translate(98.849 58.289)"/><g transform="translate(101.384 103.912)"><rect class="k" width="5.069" height="12.673" transform="translate(27.881)"/><rect class="k" width="5.069" height="5.069" transform="translate(17.742 7.604)"/><rect class="k" width="5.069" height="10.138" transform="translate(0 2.535)"/></g><g transform="translate(40.553 2.528)"><path class="l" d="M75.529,30.967l7.046,7.046L89.267,44.7v7.6h73.5V44.7L109.544,6.686Z" transform="translate(-58.852 -6.686)"/><path class="l" d="M53.52,56.86v7.6H71.262l-7.6-7.6Z" transform="translate(-53.52 -18.841)"/></g><g transform="translate(64.277 23.413)"><path class="d" d="M130.454,48.848H155.8l-21.088-14.6a12.44,12.44,0,0,1,.811,4.461A12.7,12.7,0,0,1,130.454,48.848Z" transform="translate(-95.882 -34.248)"/><path class="d" d="M84.828,44.691l4.157,4.157h15.208a12.7,12.7,0,0,1-5.069-10.138,12.44,12.44,0,0,1,.811-4.461Z" transform="translate(-84.828 -34.248)"/></g><rect class="i" width="91.245" height="7.604" transform="translate(2.535 111.516)"/><g transform="translate(2.535 32.943)"><path class="m" d="M43.9,78.051h5.069V83.12H38.829L18.553,62.843H3.345V50.17H16.018Z" transform="translate(-3.345 -47.636)"/><path class="m" d="M63.658,46.825,76.331,56.964V72.171H71.262V62.033l-7.6-7.6H53.52v-7.6Z" transform="translate(-15.501 -46.825)"/></g><path class="n" d="M54.037,33.446l4,4L65.088,44.5l6.691,6.691V68.93h-7.6V53.722L51.5,43.584H41.364V61.326l7.6,7.6V74H43.9L16.018,46.118H3.345V33.446Z" transform="translate(-0.81 -10.641)"/><path d="M93.659,95.379h5.5a7.641,7.641,0,0,0,4.635,4.636v5.5h5.069v-7.6a2.534,2.534,0,0,0-2.535-2.535,2.537,2.537,0,0,1-2.535-2.535,2.534,2.534,0,0,0-2.535-2.535h-7.6Z" transform="translate(-22.691 -24.417)"/><path d="M103.8,129.262a7.641,7.641,0,0,0-4.635,4.636h-5.5v5.069h7.6a2.534,2.534,0,0,0,2.535-2.535,2.537,2.537,0,0,1,2.535-2.535,2.534,2.534,0,0,0,2.535-2.535v-7.6H103.8Z" transform="translate(-22.691 -32.521)"/><path d="M18.449,92.845a2.537,2.537,0,0,1-2.535,2.535,2.534,2.534,0,0,0-2.535,2.535v7.6h5.069v-5.5a7.641,7.641,0,0,0,4.635-4.636h5.5V90.31h-7.6A2.534,2.534,0,0,0,18.449,92.845Z" transform="translate(-3.242 -24.417)"/><path d="M18.449,129.262v-5.5H13.38v7.6a2.534,2.534,0,0,0,2.535,2.535,2.537,2.537,0,0,1,2.535,2.535,2.534,2.534,0,0,0,2.535,2.535h7.6V133.9h-5.5A7.641,7.641,0,0,0,18.449,129.262Z" transform="translate(-3.242 -32.521)"/><path d="M75.013,90.709l-2.4,4.465a17.614,17.614,0,0,1,0,31.019l2.4,4.465a22.687,22.687,0,0,0,0-39.95Z" transform="translate(-17.591 -24.514)"/><rect width="5.069" height="5.069" transform="translate(73.503 83.635)"/><rect width="5.069" height="5.069" transform="translate(17.742 83.635)"/><path d="M147.006,71.777v-7.6h2.535a2.542,2.542,0,0,0,2.535-2.535V51.5a2.542,2.542,0,0,0-2.535-2.535h-2.535V43.9a2.522,2.522,0,0,0-1.065-2.053L92.715,3.824a2.511,2.511,0,0,0-2.94,0L57.51,26.838l-2.484-2.484a2.618,2.618,0,0,0-1.8-.735H2.535A2.542,2.542,0,0,0,0,26.154V51.5a2.542,2.542,0,0,0,2.535,2.535H16.7L21.772,59.1H2.535A2.542,2.542,0,0,0,0,61.638V117.4a2.542,2.542,0,0,0,2.535,2.535H93.78a2.542,2.542,0,0,0,2.535-2.535V61.638A2.542,2.542,0,0,0,93.78,59.1H73.5V54.035h73.5V59.1H101.384v5.069h40.553v5.069H126.73v5.069H139.4V125H38.019a2.542,2.542,0,0,0-2.535,2.535v7.6H32.95a2.542,2.542,0,0,0-2.535,2.535v10.138a2.542,2.542,0,0,0,2.535,2.535H149.541a2.542,2.542,0,0,0,2.535-2.535V137.676a2.542,2.542,0,0,0-2.535-2.535h-2.535v-7.6A2.542,2.542,0,0,0,144.472,125V74.311A2.542,2.542,0,0,0,147.006,71.777ZM19.542,49.7a2.618,2.618,0,0,0-1.8-.735H5.069V28.689H52.187l3.244,3.27,11.2,11.2,1.8,1.774V59.1h-7.6V51.5c0-.051-.025-.1-.025-.152a5.062,5.062,0,0,0-.127-.659.9.9,0,0,0-.1-.228,2.973,2.973,0,0,0-.482-.76l-7.6-7.6a2.618,2.618,0,0,0-1.8-.735H40.553A2.542,2.542,0,0,0,38.019,43.9V54.035a2.617,2.617,0,0,0,.735,1.8l6.869,6.843v6.565H39.058l-9.378-9.4Zm24.586,4.334H55.761V59.1H49.2Zm-1.039-5.069V46.431h6.565l2.535,2.535ZM91.245,64.173v50.692H5.069V64.173H26.841l8.516,8.516a22.678,22.678,0,0,0,4.461,36.8l2.408-4.461a17.577,17.577,0,0,1-.482-30.719h3.878v2.535H43.088a2.542,2.542,0,0,0-2.535,2.535V89.519a2.542,2.542,0,0,0,2.535,2.535h7.6v5.069H45.623V94.588H40.553v5.069a2.542,2.542,0,0,0,2.535,2.535h2.535v2.535h5.069v-2.535h2.535a2.542,2.542,0,0,0,2.535-2.535V89.519a2.542,2.542,0,0,0-2.535-2.535h-7.6V81.915h5.069V84.45h5.069V79.381a2.542,2.542,0,0,0-2.535-2.535H50.692V64.173ZM69.473,38.827,68.231,37.56l7.832-5.424a15.489,15.489,0,0,0,2.028,6.691Zm72.464,10.138H73.5V43.9H83.642a2.532,2.532,0,0,0,1.521-4.562,10.2,10.2,0,0,1-4.055-8.111,10.353,10.353,0,0,1,.634-3.548,2.523,2.523,0,0,0-3.8-2.991L64.581,33.91l-3.447-3.422L91.245,8.995l50.692,36.194ZM40.553,130.072H141.937v5.069H40.553Zm106.453,10.138v5.069H35.484v-5.069Z" transform="translate(0 -3.349)"/><path d="M146.472,115.655H133.8v5.069h10.138v7.6a2.534,2.534,0,0,0,4.327,1.792l17.742-17.742a2.534,2.534,0,0,0,0-3.584L148.264,91.052a2.535,2.535,0,0,0-4.327,1.792v7.6H133.8v5.069h12.673a2.534,2.534,0,0,0,2.535-2.535v-4.02l11.624,11.624L149.006,122.21v-4.02A2.534,2.534,0,0,0,146.472,115.655Z" transform="translate(-32.415 -24.416)"/><rect width="5.069" height="12.673" transform="translate(129.264 103.912)"/><rect width="5.069" height="5.069" transform="translate(119.126 111.516)"/><rect width="5.069" height="10.138" transform="translate(101.384 106.447)"/><path d="M129.643,50.572h25.346a2.535,2.535,0,0,0,1.443-4.619l-21.087-14.6a2.534,2.534,0,0,0-3.81,2.987,9.947,9.947,0,0,1,.643,3.557,10.212,10.212,0,0,1-4.058,8.114,2.534,2.534,0,0,0,1.524,4.559Zm7.575-11.755,9.657,6.686H135.2A15.279,15.279,0,0,0,137.219,38.817Z" transform="translate(-30.794 -10.025)"/></g></g></svg>