<svg xmlns="http://www.w3.org/2000/svg" xmlns:xlink="http://www.w3.org/1999/xlink" width="255" height="144" viewBox="0 0 255 144"><defs><style>.a{fill:#f8f8f8;}.b{clip-path:url(#a);}.c{fill:#5b4349;}.d{fill:#878b9b;}.e{fill:#efccbf;}.f{fill:#5da364;}.g{fill:#538457;}.h{fill:#b5a58c;}.i{fill:#d3c6af;}.j{fill:#676b7f;}.k{fill:#71bf79;}.l{fill:#704d4d;}.m{fill:#f4c167;}</style><clipPath id="a"><rect class="a" width="255" height="144" transform="translate(273 310.749)"/></clipPath></defs><g class="b" transform="translate(-273 -310.749)"><g transform="translate(328.954 310.972)"><path class="c" d="M74.517,45.23,71.3,29.612a24.426,24.426,0,0,0-47.844-.248L19.981,45.23a9.58,9.58,0,0,0,7.685,11.65,5.451,5.451,0,0,0,1.983.248H64.6a9.944,9.944,0,0,0,9.916-9.916,5.281,5.281,0,0,0,0-1.983Zm0,0" transform="translate(-5.108 -2.592)"/><path class="d" d="M107.034,37.184l5.949-5.949a4.895,4.895,0,0,0,1.488-3.47V4.958A4.972,4.972,0,0,1,119.429,0h47.1a4.972,4.972,0,0,1,4.958,4.958V34.7a4.972,4.972,0,0,1-4.958,4.958H107.034Zm0,0" transform="translate(-27.709 0)"/><path class="e" d="M36.793,30.1V46.96c0,4.463.743,5.95,2.231,6.942L42,55.884A4.87,4.87,0,0,1,44.23,60.1V72.245H59.1V60.1a4.87,4.87,0,0,1,2.231-4.215L64.309,53.9a4.87,4.87,0,0,0,2.231-4.215V30.1Zm0,0" transform="translate(-9.525 -7.793)"/><path class="f" d="M70.893,93.411,51.31,86.966H36.437L16.853,93.411A14.975,14.975,0,0,0,6.69,107.54V141.5H81.057V107.54A14.975,14.975,0,0,0,70.893,93.411Zm0,0" transform="translate(-1.732 -22.514)"/><path class="g" d="M26.759,117.069h4.958v32.226H26.759Zm0,0" transform="translate(-6.927 -30.307)"/><path class="g" d="M80.276,130.448h4.958v22.31H80.276Zm0,0" transform="translate(-20.782 -33.771)"/><path class="h" d="M0,160.552H84.283v24.789H0Zm0,0" transform="translate(0 -41.564)"/><path class="i" d="M40.138,173.931H64.927v4.958H40.138Zm0,0" transform="translate(-10.391 -45.028)"/><g transform="translate(94.199 7.437)"><path class="j" d="M127.1,10.034h42.142v4.958H127.1Zm0,0" transform="translate(-127.103 -10.034)"/><path class="j" d="M127.1,23.414h42.142v4.958H127.1Zm0,0" transform="translate(-127.103 -13.498)"/><path class="j" d="M127.1,36.793h32.226v4.958H127.1Zm0,0" transform="translate(-127.103 -16.962)"/></g><path class="k" d="M66.9,117.069H81.77v4.958H66.9Zm0,0" transform="translate(-17.318 -30.307)"/><path class="l" d="M48.116,10.034a24.2,24.2,0,0,0-23.8,19.335l-1.239,5.454,10.907-5.949a12.985,12.985,0,0,1,13.387.248,12.706,12.706,0,0,0,11.9.743l11.155-4.958a24.224,24.224,0,0,0-22.31-14.873Zm0,0" transform="translate(-5.975 -2.598)"/><path class="k" d="M29.434,91.427l10.412,10.412L49.761,94.4V86.965H42.325Zm0,0" transform="translate(-7.62 -22.514)"/><path class="k" d="M66.778,101.839,77.19,91.427,64.3,86.966H56.862V94.4Zm0,0" transform="translate(-14.721 -22.514)"/><path class="g" d="M53.517,86.966h4.958V141.5H53.517Zm0,0" transform="translate(-13.855 -22.514)"/><path class="l" d="M129.586,111.021a18.422,18.422,0,0,1-9.172-16.113v-18.1A9.944,9.944,0,0,1,130.33,66.9H157.6V94.908a18.722,18.722,0,0,1-9.172,16.113,19.559,19.559,0,0,1-18.839,0Zm0,0" transform="translate(-31.173 -17.318)"/><path class="m" d="M160.212,135.531,141.62,127.1H124.268l-18.592,8.428A15.09,15.09,0,0,0,97,149.165v27.516h71.888V149.165a15.09,15.09,0,0,0-8.676-13.634Zm0,0" transform="translate(-25.112 -32.905)"/></g></g></svg>