<svg xmlns="http://www.w3.org/2000/svg" xmlns:xlink="http://www.w3.org/1999/xlink" width="268.76" height="156.923" viewBox="0 0 268.76 156.923"><defs><style>.a{fill:#f5f5f5;}.b{clip-path:url(#a);}.c{fill:#61729b;}.d{fill:#47568c;}.e{fill:#fde4e4;}.f{fill:#fcced3;}.g{fill:#25d9f8;}.h{fill:#2c3b73;}.i{fill:#00c0f1;}.j{fill:#faaaaa;}.k{fill:#009ae4;}</style><clipPath id="a"><rect class="a" width="268.76" height="156.923"/></clipPath></defs><g class="b"><g transform="translate(76.821)"><path class="c" d="M138.231,157.6v23.293H120.52l-4.428-9.195-4.428,9.195H93.955L89.527,171.7H71.817l-4.428,9.195H49.679L45.251,171.7l-4.428,9.195H23.113V157.6c0-12.873,8.767-24,20.9-26.481l27.805-5.7h17.71l27.805,5.7C129.464,133.6,138.231,144.727,138.231,157.6Z" transform="translate(-23.113 -23.97)"/><path class="d" d="M154.559,157.6v23.293h-17.71l-4.428-9.195-4.428,9.195h-17.71l-4.428-9.195H97v-46.28h8.855l27.805,5.7C145.792,133.6,154.559,144.727,154.559,157.6Z" transform="translate(-39.441 -23.97)"/><path class="e" d="M119.2,32.308V64.489A32.079,32.079,0,0,1,97.063,95.2v10.666l-8.855,9.195-8.855-9.195V95.2a32.079,32.079,0,0,1-22.138-30.71V41.5l29.133-9.195L95.2,23.113Z" transform="translate(-30.649 -4.417)"/><path class="f" d="M127.993,32.308V64.489A32.079,32.079,0,0,1,105.855,95.2v10.666L97,115.06V30.377l7-7.264Z" transform="translate(-39.441 -4.417)"/><path class="c" d="M119.2,23.293v4.6h-24l-8.855,9.195H57.215V23.293C57.215,10.6,67.133,0,79.353,0h17.71C109.283,0,119.2,10.6,119.2,23.293Z" transform="translate(-30.649)"/><path class="g" d="M106.515,183.065H79.949l4.428-37.085,8.855-9.195,8.855,9.195Z" transform="translate(-35.673 -26.142)"/><rect class="d" width="8.855" height="27.891" transform="translate(17.71 129.032)"/><rect class="h" width="8.855" height="27.891" transform="translate(88.552 129.032)"/><path class="i" d="M105.855,145.98l4.428,37.085H97v-46.28Z" transform="translate(-39.441 -26.142)"/><path class="d" d="M127.993,23.293v4.6H104l-7,7.264V0h8.855C118.075,0,127.993,10.6,127.993,23.293Z" transform="translate(-39.441)"/><path class="f" d="M106.515,74.266a13.292,13.292,0,1,1-26.566,0H88.8a4.431,4.431,0,1,0,8.855,0Z" transform="translate(-35.673 -14.194)"/><path class="j" d="M110.283,74.266A13.526,13.526,0,0,1,97,88.058V78.863a4.471,4.471,0,0,0,4.428-4.6Z" transform="translate(-39.441 -14.194)"/><rect class="i" width="17.71" height="18.389" transform="translate(48.704 101.448)"/><rect class="k" width="8.855" height="18.389" transform="translate(57.559 101.448)"/></g></g></svg>