<svg xmlns="http://www.w3.org/2000/svg" xmlns:xlink="http://www.w3.org/1999/xlink" width="261" height="147" viewBox="0 0 261 147"><defs><style>.a{fill:#f5f5f5;}.b{clip-path:url(#a);}.c{fill:#ffb782;}.d{fill:#f2a46f;}.e{fill:#f5ab76;}.f{fill:#628a27;}.g{fill:#6b962a;}.h{fill:#88b337;}.i{fill:#80a834;}</style><clipPath id="a"><rect class="a" width="261" height="147" transform="translate(362 778)"/></clipPath></defs><g class="b" transform="translate(-362 -778)"><g transform="translate(419.209 778)"><g transform="translate(0 0)"><path class="c" d="M137.678,114.5a7.314,7.314,0,0,0-9.847,2.2L117,132.967v-31.85a7.35,7.35,0,0,0-14.7,0,7.35,7.35,0,0,0-14.7,0,7.35,7.35,0,0,0-14.7,0,7.35,7.35,0,0,0-14.7,0v51.45a14.7,14.7,0,0,0,14.7,14.7h30.551a19.6,19.6,0,0,0,16.807-9.516l19.928-33.215A7.313,7.313,0,0,0,137.678,114.5Z" transform="translate(-14.1 -22.717)"/><path class="d" d="M98.667,164.317h-4.9a22.077,22.077,0,0,1,22.05-22.05h9.8v4.9h-9.8A17.169,17.169,0,0,0,98.667,164.317Z" transform="translate(-22.717 -34.467)"/><rect class="e" width="58.8" height="4.9" transform="translate(44.1 90.65)"/><rect class="d" width="4.9" height="24.5" transform="translate(56.35 78.4)"/><rect class="d" width="4.9" height="24.5" transform="translate(71.05 78.4)"/><rect class="d" width="4.9" height="24.5" transform="translate(85.75 78.4)"/><rect class="f" width="102.9" height="58.8" transform="translate(22.05 31.85)"/><rect class="g" width="102.9" height="58.8" transform="translate(22.05 22.05)"/><rect class="h" width="102.9" height="58.8" transform="translate(22.05 12.25)"/><path class="g" d="M117.984,68.3h-68.6a7.35,7.35,0,0,0-7.35-7.35h0V36.45h0a7.35,7.35,0,0,0,7.35-7.35h68.6a7.35,7.35,0,0,0,7.35,7.35h0v24.5h0A7.35,7.35,0,0,0,117.984,68.3Z" transform="translate(-10.183 -7.05)"/><rect class="h" width="4.9" height="4.9" transform="translate(41.65 39.2)"/><rect class="h" width="4.9" height="4.9" transform="translate(100.45 39.2)"/><ellipse class="h" cx="17.15" cy="19.6" rx="17.15" ry="19.6" transform="translate(56.35 22.05)"/><rect class="i" width="102.9" height="9.8" transform="translate(22.05 12.25)"/><path d="M130.289,94.815a2.391,2.391,0,0,0,.245-1.031V32.533a9.8,9.8,0,1,0,0-19.6H22.733a9.8,9.8,0,0,0,0,19.6v61.25a2.451,2.451,0,0,0,2.45,2.45h19.6v36.75a17.169,17.169,0,0,0,17.15,17.15H92.487a22.16,22.16,0,0,0,18.907-10.7l19.928-33.215A9.624,9.624,0,0,0,130.289,94.815Zm-21.805,1.418h6.039l-6.039,9.065Zm-80.85-19.6h98v4.9h-98Zm107.8-53.9a4.9,4.9,0,0,1-4.9,4.9v-9.8A4.9,4.9,0,0,1,135.434,22.733Zm-9.8-4.9v53.9h-98v-53.9Zm-107.8,4.9a4.9,4.9,0,0,1,4.9-4.9v9.8A4.9,4.9,0,0,1,17.833,22.733Zm9.8,68.6v-4.9h98v4.9Zm99.487,12.36L107.192,136.9a17.237,17.237,0,0,1-14.7,8.33H61.933a12.264,12.264,0,0,1-12.25-12.25V96.234h9.8v9.8h4.9v-9.8h9.8v9.8h4.9v-9.8h9.8v9.8h4.9v-9.8h9.8v14.7h-7.35a22.077,22.077,0,0,0-22.05,22.05h4.9a17.169,17.169,0,0,1,17.15-17.15h9.8a2.447,2.447,0,0,0,2.038-1.083L118.9,98.5a4.863,4.863,0,0,1,8.217,5.2Z" transform="translate(-3.133 -3.133)"/><path d="M41.25,62.617a4.9,4.9,0,0,1,4.9,4.9,2.451,2.451,0,0,0,2.45,2.45h68.6a2.451,2.451,0,0,0,2.45-2.45,4.9,4.9,0,0,1,4.9-4.9,2.451,2.451,0,0,0,2.45-2.45v-24.5a2.451,2.451,0,0,0-2.45-2.45,4.9,4.9,0,0,1-4.9-4.9,2.451,2.451,0,0,0-2.45-2.45H48.6a2.451,2.451,0,0,0-2.45,2.45,4.9,4.9,0,0,1-4.9,4.9,2.451,2.451,0,0,0-2.45,2.45v24.5A2.451,2.451,0,0,0,41.25,62.617Zm26.95-14.7c0-9.457,6.593-17.15,14.7-17.15s14.7,7.693,14.7,17.15-6.593,17.15-14.7,17.15S68.2,57.374,68.2,47.917Zm46.859-17.15a9.84,9.84,0,0,0,7.041,7.041V58.026a9.84,9.84,0,0,0-7.041,7.041H95.192a23.132,23.132,0,0,0,7.308-17.15,23.133,23.133,0,0,0-7.308-17.15h19.867ZM43.7,37.808a9.84,9.84,0,0,0,7.041-7.041H70.609A23.132,23.132,0,0,0,63.3,47.917a23.133,23.133,0,0,0,7.308,17.15H50.742A9.84,9.84,0,0,0,43.7,58.025Z" transform="translate(-9.4 -6.267)"/><rect width="4.9" height="4.9" transform="translate(41.65 39.2)"/><rect width="4.9" height="4.9" transform="translate(100.45 39.2)"/></g></g></g></svg>