<svg xmlns="http://www.w3.org/2000/svg" xmlns:xlink="http://www.w3.org/1999/xlink" width="274" height="154" viewBox="0 0 274 154"><defs><style>.a{fill:#fff;}.b{clip-path:url(#a);}.c{fill:#50dd5a;}.d{fill:#49c160;}.e{fill:#ffd39f;}.f{fill:#efc597;}.g{fill:#edb740;}.h{fill:#cc9a40;}.i{fill:#5fa8ed;}.j{fill:#4689d3;}.k{fill:#f9b691;}.l{fill:#e5a889;}.m{fill:#efc69a;}.n{fill:#284268;}</style><clipPath id="a"><rect class="a" width="274" height="154" transform="translate(782 371)"/></clipPath></defs><g class="b" transform="translate(-782 -371)"><g transform="translate(867.234 371)"><path class="c" d="M155.915,149.385l-4.263,35.432H129.487l2.786-9.262,6.042-20.079,1.832-6.091Z" transform="translate(-54.372 -32.696)"/><path class="d" d="M136.9,178.558l2.786-9.262,5.991-19.91h-5.531l-1.832,6.091-6.042,20.079-2.786,9.262h22.166l.753-6.26Z" transform="translate(-54.372 -32.696)"/><path class="e" d="M72.507,152a7.8,7.8,0,0,1,5.217-2H88.35a12.514,12.514,0,0,0,5.5-1.277l1.093-.538A17.483,17.483,0,0,1,113.268,150l2.647,2.385a10.333,10.333,0,0,0,5.013,2.485l.049.016-6.042,20.079-8.646-5.54a5.867,5.867,0,0,0-4.346-.582l-15.966,2.977A19.121,19.121,0,0,1,73.949,170.1L46.326,150.882a6.355,6.355,0,0,1,8.525-2.363l1.405.77L67.979,155.7l1.946,1.039A8,8,0,0,1,72.507,152Z" transform="translate(-37.034 -32.104)"/><path class="f" d="M109.379,163.5a5.867,5.867,0,0,0-4.346-.582L89.066,165.89a19.121,19.121,0,0,1-12.028-1.718l-21.412-14.9-.776-.425a6.355,6.355,0,0,0-8.525,2.363l27.624,19.219a19.121,19.121,0,0,0,12.028,1.718l15.966-2.977a5.867,5.867,0,0,1,4.346.582l8.646,5.54,2.078-6.908Z" transform="translate(-37.034 -32.436)"/><path class="g" d="M109.3,80.685a26.617,26.617,0,0,1-1.118,32.594,30.741,30.741,0,0,1-47.337,0,26.621,26.621,0,0,1-1.118-32.593l7.033-9.719A24.48,24.48,0,0,1,73.2,73.82a16.43,16.43,0,0,0,6.255,2.244,42.761,42.761,0,0,0,6.774.4H99.142a4.44,4.44,0,0,0,4.367-3.786Z" transform="translate(-38.779 -17.175)"/><path class="g" d="M87.214,23.716A48.5,48.5,0,0,0,81.184,9.139l-1.8-2.9,27.97.3a50.63,50.63,0,0,0-6.8,18.7l-.049.322-.374,2.46,0,.122-9.557.178a3.719,3.719,0,0,1-3.4-3.393V23.725Z" transform="translate(-43.926 -4.366)"/><path class="h" d="M67.024,113.278a26.621,26.621,0,0,1-1.118-32.594l5.65-7.808a24.441,24.441,0,0,0-4.795-1.911l-7.033,9.719a26.621,26.621,0,0,0,1.118,32.594A30.72,30.72,0,0,0,87.6,124.246,30.7,30.7,0,0,1,67.024,113.278Z" transform="translate(-38.779 -17.175)"/><path class="h" d="M93.354,24.934a76.735,76.735,0,0,0-2.227-8.376,48.23,48.23,0,0,0-3.765-7.418L85.6,6.31l-6.218-.066,1.8,2.9a48.5,48.5,0,0,1,6.029,14.577l-.037.009v1.208a3.719,3.719,0,0,0,3.4,3.393l5.442-.1a3.879,3.879,0,0,1-2.665-3.291Z" transform="translate(-43.926 -4.366)"/><path class="i" d="M52.8,60.967v5.221H36.929V25.03H52.8V60.967Z" transform="translate(-35.075 -8.084)"/><path class="j" d="M43.106,34.706a3.393,3.393,0,0,1,3.37-3.415H52.8V25.03H36.929V66.188h6.178Z" transform="translate(-35.075 -8.084)"/><path class="k" d="M67.238,60.7a24.359,24.359,0,0,0-6.595-.908H56.979V29.757h3.972a12.2,12.2,0,0,0,6.5-2.157c1.625-1.03,1-8.489,8.368-8.489h4.436l.025-.009a48.107,48.107,0,0,1,2.2,6.9c.02.085.023,1.471.023,1.471a3.719,3.719,0,0,0,3.4,3.393l9.557-.178,6.465-.122a4.2,4.2,0,0,1,0,8.407h-.423V39a4.634,4.634,0,0,1,0,9.268h.136a4.494,4.494,0,0,1,0,8.986H99.618a4.449,4.449,0,0,1,4.417,4.473,5.048,5.048,0,0,1-.049.689A4.44,4.44,0,0,1,99.618,66.2H86.7a42.764,42.764,0,0,1-6.774-.4,16.43,16.43,0,0,1-6.255-2.244A24.48,24.48,0,0,0,67.238,60.7Z" transform="translate(-39.255 -6.911)"/><path class="k" d="M116.811,19.114v.172c0,4.874-2.385,8.827-7.194,8.827h-3.549l.049-.322a50.4,50.4,0,0,1,2.116-8.677Z" transform="translate(-49.489 -6.913)"/><g transform="translate(17.724 12.192)"><path class="l" d="M108.392,19.114c-.593,1.744-1.54,5.546-1.564,5.658l8.855-.023a11.062,11.062,0,0,0,1.286-5.462v-.172Z" transform="translate(-67.372 -19.105)"/><path class="l" d="M82.081,24.437a48,48,0,0,0-1.8-5.335l-.025.009H75.818c-7.37,0-6.743,7.459-8.368,8.489a12.2,12.2,0,0,1-6.5,2.157H56.979v5.634h3.972a12.2,12.2,0,0,0,6.5-2.157c1.625-1.03,1-8.489,8.368-8.489h4.436l.025-.009" transform="translate(-56.979 -19.102)"/><path class="l" d="M89.253,33.072l.013,1.577-.037.009v1.208a3.719,3.719,0,0,0,3.4,3.393l9.557-.178,6.465-.122a4.109,4.109,0,0,1,2.934,1.23c.049.049.093.1.139.157a4.242,4.242,0,0,0,.718-4.523,4.141,4.141,0,0,0-3.791-2.5l-6.465.122-9.557.178a3.051,3.051,0,0,1-1.793-.61" transform="translate(-63.703 -21.856)"/></g><path class="m" d="M84.992,149.792H82.636a7.8,7.8,0,0,0-5.217,2l-7.534-4.116.093-.175a7.169,7.169,0,0,1,8.751-1.158Z" transform="translate(-41.946 -31.897)"/><path class="m" d="M67.589,147.874l7.534,4.116a8,8,0,0,0-2.582,4.739l-1.946-1.039-11.722-6.407.009-.016c1.313-2.341,4.42-3.656,6.789-2.438Z" transform="translate(-39.65 -32.098)"/><g transform="translate(0)"><path class="n" d="M139.478,146.88a1.843,1.843,0,0,0-1.388-.633H122.322a1.857,1.857,0,0,0-1.773,1.331l-1.3,4.332a8.491,8.491,0,0,1-2.588-1.6l-2.645-2.386c-.038-.034-.077-.067-.118-.1a19.242,19.242,0,0,0-20.248-2l-1.1.537a10.721,10.721,0,0,1-4.692,1.09h-7.8l-5.83-3.213a9,9,0,0,0-10.056.673l-.73-.4-.041-.022a7.051,7.051,0,0,0-8.151,1.713l-.012-.007a8.184,8.184,0,0,0-10.992,3.046,1.894,1.894,0,0,0,.539,2.517l27.622,19.219a1.82,1.82,0,0,0,.227.135A21.085,21.085,0,0,0,85.826,173l15.966-2.979c.039-.007.078-.016.116-.025a4.017,4.017,0,0,1,2.949.379l7.406,4.745-2.374,7.893a1.9,1.9,0,0,0,.283,1.665,1.845,1.845,0,0,0,1.489.76h22.164a1.862,1.862,0,0,0,1.84-1.651l4.264-35.432A1.9,1.9,0,0,0,139.478,146.88ZM72.4,147.5l.044.025,1.16.639a9.712,9.712,0,0,0-1.751.934l-3.793-2.07a5.321,5.321,0,0,1,4.341.472Zm-10.685.33,7.4,4.041a9.912,9.912,0,0,0-.8,1.471l-9.548-5.218a3.12,3.12,0,0,1,2.943-.294Zm45.078,19.337c-.028-.018-.057-.036-.086-.052a7.669,7.669,0,0,0-5.639-.783L85.159,169.3A17.39,17.39,0,0,1,74.4,167.8L48.606,149.857a4.493,4.493,0,0,1,4.877-.357l13.142,7.184.865.462c0,.063,0,.122,0,.184a1.866,1.866,0,0,0,1.853,1.878c.028,0,.056,0,.084,0l9.062-.415a42.389,42.389,0,0,1,7.825.366,1.878,1.878,0,0,0,.508-3.721,46.112,46.112,0,0,0-8.5-.4l-6.8.313a6.063,6.063,0,0,1,5.721-4.146H87.861a14.406,14.406,0,0,0,6.305-1.464l1.1-.537a15.59,15.59,0,0,1,16.346,1.578l2.587,2.333a12.189,12.189,0,0,0,3.97,2.39l-4.779,15.885Zm25.393,14.511h-18.02L123.695,150H136Z" transform="translate(-36.546 -31.435)"/><path class="n" d="M54.166,62.005V58.663h1.809a22.585,22.585,0,0,1,3.405.261L54.041,66.3a28.429,28.429,0,0,0,1.2,34.917,32.58,32.58,0,0,0,50.167,0A28.43,28.43,0,0,0,106.6,66.3l-5.391-7.45c0-.046.007-.09.007-.136a6.371,6.371,0,0,0-1.04-3.5,6.4,6.4,0,0,0,1.2-10,6.554,6.554,0,0,0,.069-9.109,6.126,6.126,0,0,0,1.629-5.814,6.037,6.037,0,0,0-4.132-4.359c2.987-1.645,4.812-5.123,4.812-9.658V16.1a1.866,1.866,0,0,0-1.853-1.878H96a48.566,48.566,0,0,1,3.588-7.16,1.9,1.9,0,0,0,.046-1.893,1.85,1.85,0,0,0-1.6-.972l-27.97-.3a1.849,1.849,0,0,0-1.638.962,1.9,1.9,0,0,0,.05,1.918l1.8,2.9a46.677,46.677,0,0,1,2.486,4.547H71.15c-6.533,0-8.146,4.908-9.013,7.543a11.813,11.813,0,0,1-.487,1.326,10.206,10.206,0,0,1-5.365,1.775H54.166V20.849a1.866,1.866,0,0,0-1.853-1.878H36.44a1.866,1.866,0,0,0-1.853,1.878V62.005a1.866,1.866,0,0,0,1.853,1.878H52.313a1.866,1.866,0,0,0,1.853-1.878Zm49.448,6.518a24.645,24.645,0,0,1-1.038,30.268,28.9,28.9,0,0,1-44.508,0,24.645,24.645,0,0,1-1.038-30.268l6.254-8.642A22.723,22.723,0,0,1,67.8,62c-4.561,3.9-4.3,9.959-3.365,12.945a1.849,1.849,0,0,0,2.325,1.225,1.883,1.883,0,0,0,1.209-2.356,11.149,11.149,0,0,1-.313-3.9,7.384,7.384,0,0,1,4.036-6.06,32.594,32.594,0,0,0,10.342,1.213h4.319l.441.807a18.164,18.164,0,0,1,2.188,9.915l-.037.575a1.87,1.87,0,0,0,1.727,2c.041,0,.083,0,.124,0a1.864,1.864,0,0,0,1.847-1.753l.038-.575a21.959,21.959,0,0,0-2.027-10.762c1.07.413,4.314,2.2,4.929,8.815a1.863,1.863,0,0,0,1.843,1.7c.058,0,.117,0,.176-.008a1.871,1.871,0,0,0,1.671-2.046,16.242,16.242,0,0,0-3.12-8.79,6.242,6.242,0,0,0,3.446-1.981ZM99.928,17.981c-.328,2.189-1.458,5.242-5.213,5.242H93.367a48.681,48.681,0,0,1,1.3-5.242h5.261Zm-25-10.27a1.861,1.861,0,0,0,.21.106c2.932,1.232,5.287,5.087,4.846,7.933A1.875,1.875,0,0,0,81.523,17.9a1.847,1.847,0,0,0,2.118-1.565,11.386,11.386,0,0,0-2.656-8.557l5.858.063a14.5,14.5,0,0,0-.7,7.077A1.855,1.855,0,0,0,88.3,16.43a1.876,1.876,0,0,0,1.5-2.181A11.622,11.622,0,0,1,90.807,7.88l4.021.043a52.148,52.148,0,0,0-5.445,16.572l-.2,1.341-7.954.15a1.457,1.457,0,0,1-1.009-.543A50.118,50.118,0,0,0,73.423,7.694ZM54.166,28.627h2.118a13.862,13.862,0,0,0,7.481-2.441c1.044-.661,1.435-1.851,1.889-3.229.958-2.913,1.912-4.975,5.5-4.975h3.205a46.456,46.456,0,0,1,1.628,5.326v1.162a1.871,1.871,0,0,0,.011.2,5.6,5.6,0,0,0,5.245,5.068h.034l16-.3a2.326,2.326,0,0,1-.015,4.651H93.441a1.865,1.865,0,0,0-.259.02H90.729a1.878,1.878,0,0,0,0,3.756h6.107a2.755,2.755,0,0,1,0,5.511H90.729a1.878,1.878,0,0,0,0,3.756h6.244a2.616,2.616,0,0,1,0,5.231h-9a1.878,1.878,0,0,0,0,3.756H94.95a2.6,2.6,0,0,1,0,5.193H82.031c-4.538,0-8.576-.178-12.051-2.362a26.286,26.286,0,0,0-14-4.044H54.166Zm-3.707,31.5H38.294v-37.4H50.459Z" transform="translate(-34.587 -3.902)"/><path class="n" d="M91.935,102.554a2.36,2.36,0,0,1,2.342,2.373,1.853,1.853,0,1,0,3.707,0,6.13,6.13,0,0,0-4.2-5.83v-.755a1.853,1.853,0,1,0-3.707,0V99.1a6.134,6.134,0,0,0-4.123,6.784,6.072,6.072,0,0,0,5.976,5.177,2.373,2.373,0,0,1,.031,4.745H91.9a2.36,2.36,0,0,1-2.312-2.372,1.853,1.853,0,1,0-3.707,0,6.131,6.131,0,0,0,4.195,5.832v.948a1.853,1.853,0,1,0,3.707,0v-.948a6.134,6.134,0,0,0,4.123-6.784,6.072,6.072,0,0,0-5.976-5.177,2.373,2.373,0,0,1,0-4.746Z" transform="translate(-45.282 -22.222)"/></g></g></g></svg>